<svg width="112" height="47" viewBox="0 0 112 47" fill="none" xmlns="http://www.w3.org/2000/svg">
<path d="M44.7951 1.248V13.008C44.7951 14.64 44.3231 15.912 43.3791 16.824C42.4351 17.72 41.1711 18.168 39.5871 18.168C37.9871 18.168 36.6911 17.704 35.6991 16.776C34.7231 15.848 34.2351 14.552 34.2351 12.888H37.5951C37.6111 13.608 37.7791 14.168 38.0991 14.568C38.4351 14.968 38.9151 15.168 39.5391 15.168C40.1471 15.168 40.6111 14.976 40.9311 14.592C41.2511 14.208 41.4111 13.68 41.4111 13.008V1.248H44.7951ZM54.6186 18.216C53.3386 18.216 52.1866 17.936 51.1626 17.376C50.1386 16.8 49.3306 15.992 48.7386 14.952C48.1626 13.912 47.8746 12.712 47.8746 11.352C47.8746 9.992 48.1706 8.792 48.7626 7.752C49.3706 6.712 50.1946 5.912 51.2346 5.352C52.2746 4.776 53.4346 4.488 54.7146 4.488C55.9946 4.488 57.1546 4.776 58.1946 5.352C59.2346 5.912 60.0506 6.712 60.6426 7.752C61.2506 8.792 61.5546 9.992 61.5546 11.352C61.5546 12.712 61.2426 13.912 60.6186 14.952C60.0106 15.992 59.1786 16.8 58.1226 17.376C57.0826 17.936 55.9146 18.216 54.6186 18.216ZM54.6186 15.288C55.2266 15.288 55.7946 15.144 56.3226 14.856C56.8666 14.552 57.2986 14.104 57.6186 13.512C57.9386 12.92 58.0986 12.2 58.0986 11.352C58.0986 10.088 57.7626 9.12 57.0906 8.448C56.4346 7.76 55.6266 7.416 54.6666 7.416C53.7066 7.416 52.8986 7.76 52.2426 8.448C51.6026 9.12 51.2826 10.088 51.2826 11.352C51.2826 12.616 51.5946 13.592 52.2186 14.28C52.8586 14.952 53.6586 15.288 54.6186 15.288ZM67.3793 6.648C67.8113 6.008 68.4033 5.488 69.1553 5.088C69.9233 4.688 70.7953 4.488 71.7713 4.488C72.9073 4.488 73.9313 4.768 74.8433 5.328C75.7713 5.888 76.4993 6.688 77.0273 7.728C77.5713 8.752 77.8433 9.944 77.8433 11.304C77.8433 12.664 77.5713 13.872 77.0273 14.928C76.4993 15.968 75.7713 16.776 74.8433 17.352C73.9313 17.928 72.9073 18.216 71.7713 18.216C70.7793 18.216 69.9073 18.024 69.1553 17.64C68.4193 17.24 67.8273 16.728 67.3793 16.104V18H64.0193V0.24H67.3793V6.648ZM74.4113 11.304C74.4113 10.504 74.2433 9.816 73.9073 9.24C73.5873 8.648 73.1553 8.2 72.6113 7.896C72.0833 7.592 71.5073 7.44 70.8833 7.44C70.2753 7.44 69.6993 7.6 69.1553 7.92C68.6273 8.224 68.1953 8.672 67.8593 9.264C67.5393 9.856 67.3793 10.552 67.3793 11.352C67.3793 12.152 67.5393 12.848 67.8593 13.44C68.1953 14.032 68.6273 14.488 69.1553 14.808C69.6993 15.112 70.2753 15.264 70.8833 15.264C71.5073 15.264 72.0833 15.104 72.6113 14.784C73.1553 14.464 73.5873 14.008 73.9073 13.416C74.2433 12.824 74.4113 12.12 74.4113 11.304Z" fill="#09B451"/>
<path d="M6.29581 42.112C5.25048 42.112 4.29048 41.8667 3.41581 41.376C2.54115 40.8853 1.84781 40.208 1.33581 39.344C0.823813 38.4693 0.567813 37.4827 0.567813 36.384C0.567813 35.296 0.823813 34.32 1.33581 33.456C1.84781 32.5813 2.54115 31.8987 3.41581 31.408C4.29048 30.9173 5.25048 30.672 6.29581 30.672C7.35181 30.672 8.31181 30.9173 9.17581 31.408C10.0505 31.8987 10.7385 32.5813 11.2398 33.456C11.7518 34.32 12.0078 35.296 12.0078 36.384C12.0078 37.4827 11.7518 38.4693 11.2398 39.344C10.7385 40.208 10.0505 40.8853 9.17581 41.376C8.30115 41.8667 7.34115 42.112 6.29581 42.112ZM6.29581 40.112C6.96781 40.112 7.55981 39.9627 8.07181 39.664C8.58381 39.3547 8.98381 38.9173 9.27181 38.352C9.55981 37.7867 9.70381 37.1307 9.70381 36.384C9.70381 35.6373 9.55981 34.9867 9.27181 34.432C8.98381 33.8667 8.58381 33.4347 8.07181 33.136C7.55981 32.8373 6.96781 32.688 6.29581 32.688C5.62381 32.688 5.02648 32.8373 4.50381 33.136C3.99181 33.4347 3.59181 33.8667 3.30381 34.432C3.01581 34.9867 2.87181 35.6373 2.87181 36.384C2.87181 37.1307 3.01581 37.7867 3.30381 38.352C3.59181 38.9173 3.99181 39.3547 4.50381 39.664C5.02648 39.9627 5.62381 40.112 6.29581 40.112ZM15.9143 34.416C16.2023 34.0107 16.597 33.6747 17.0983 33.408C17.6103 33.1307 18.1916 32.992 18.8423 32.992C19.5996 32.992 20.2823 33.1787 20.8903 33.552C21.509 33.9253 21.9943 34.4587 22.3463 35.152C22.709 35.8347 22.8903 36.6293 22.8903 37.536C22.8903 38.4427 22.709 39.248 22.3463 39.952C21.9943 40.6453 21.509 41.184 20.8903 41.568C20.2823 41.952 19.5996 42.144 18.8423 42.144C18.1916 42.144 17.6156 42.0107 17.1143 41.744C16.6236 41.4773 16.2236 41.1413 15.9143 40.736V46.224H13.6743V33.136H15.9143V34.416ZM20.6023 37.536C20.6023 37.0027 20.4903 36.544 20.2663 36.16C20.053 35.7653 19.765 35.4667 19.4023 35.264C19.0503 35.0613 18.6663 34.96 18.2503 34.96C17.845 34.96 17.461 35.0667 17.0983 35.28C16.7463 35.4827 16.4583 35.7813 16.2343 36.176C16.021 36.5707 15.9143 37.0347 15.9143 37.568C15.9143 38.1013 16.021 38.5653 16.2343 38.96C16.4583 39.3547 16.7463 39.6587 17.0983 39.872C17.461 40.0747 17.845 40.176 18.2503 40.176C18.6663 40.176 19.0503 40.0693 19.4023 39.856C19.765 39.6427 20.053 39.3387 20.2663 38.944C20.4903 38.5493 20.6023 38.08 20.6023 37.536ZM26.7581 34.416C27.0461 34.0107 27.4407 33.6747 27.9421 33.408C28.4541 33.1307 29.0354 32.992 29.6861 32.992C30.4434 32.992 31.1261 33.1787 31.7341 33.552C32.3527 33.9253 32.8381 34.4587 33.1901 35.152C33.5527 35.8347 33.7341 36.6293 33.7341 37.536C33.7341 38.4427 33.5527 39.248 33.1901 39.952C32.8381 40.6453 32.3527 41.184 31.7341 41.568C31.1261 41.952 30.4434 42.144 29.6861 42.144C29.0354 42.144 28.4594 42.0107 27.9581 41.744C27.4674 41.4773 27.0674 41.1413 26.7581 40.736V46.224H24.5181V33.136H26.7581V34.416ZM31.4461 37.536C31.4461 37.0027 31.3341 36.544 31.1101 36.16C30.8967 35.7653 30.6087 35.4667 30.2461 35.264C29.8941 35.0613 29.5101 34.96 29.0941 34.96C28.6887 34.96 28.3047 35.0667 27.9421 35.28C27.5901 35.4827 27.3021 35.7813 27.0781 36.176C26.8647 36.5707 26.7581 37.0347 26.7581 37.568C26.7581 38.1013 26.8647 38.5653 27.0781 38.96C27.3021 39.3547 27.5901 39.6587 27.9421 39.872C28.3047 40.0747 28.6887 40.176 29.0941 40.176C29.5101 40.176 29.8941 40.0693 30.2461 39.856C30.6087 39.6427 30.8967 39.3387 31.1101 38.944C31.3341 38.5493 31.4461 38.08 31.4461 37.536ZM39.2978 42.144C38.4445 42.144 37.6765 41.9573 36.9938 41.584C36.3111 41.2 35.7725 40.6613 35.3778 39.968C34.9938 39.2747 34.8018 38.4747 34.8018 37.568C34.8018 36.6613 34.9991 35.8613 35.3938 35.168C35.7991 34.4747 36.3485 33.9413 37.0418 33.568C37.7351 33.184 38.5085 32.992 39.3618 32.992C40.2151 32.992 40.9885 33.184 41.6818 33.568C42.3751 33.9413 42.9191 34.4747 43.3138 35.168C43.7191 35.8613 43.9218 36.6613 43.9218 37.568C43.9218 38.4747 43.7138 39.2747 43.2978 39.968C42.8925 40.6613 42.3378 41.2 41.6338 41.584C40.9405 41.9573 40.1618 42.144 39.2978 42.144ZM39.2978 40.192C39.7031 40.192 40.0818 40.096 40.4338 39.904C40.7965 39.7013 41.0845 39.4027 41.2978 39.008C41.5111 38.6133 41.6178 38.1333 41.6178 37.568C41.6178 36.7253 41.3938 36.08 40.9458 35.632C40.5085 35.1733 39.9698 34.944 39.3298 34.944C38.6898 34.944 38.1511 35.1733 37.7138 35.632C37.2871 36.08 37.0738 36.7253 37.0738 37.568C37.0738 38.4107 37.2818 39.0613 37.6978 39.52C38.1245 39.968 38.6578 40.192 39.2978 40.192ZM47.8049 34.512C48.0929 34.0427 48.4663 33.6747 48.9249 33.408C49.3943 33.1413 49.9276 33.008 50.5249 33.008V35.36H49.9329C49.2289 35.36 48.6956 35.5253 48.3329 35.856C47.9809 36.1867 47.8049 36.7627 47.8049 37.584V42H45.5649V33.136H47.8049V34.512ZM54.6417 34.976V39.264C54.6417 39.5627 54.711 39.7813 54.8497 39.92C54.999 40.048 55.2444 40.112 55.5857 40.112H56.6257V42H55.2177C53.3297 42 52.3857 41.0827 52.3857 39.248V34.976H51.3297V33.136H52.3857V30.944H54.6417V33.136H56.6257V34.976H54.6417ZM66.6048 33.136V42H64.3488V40.88C64.0608 41.264 63.6821 41.568 63.2128 41.792C62.7541 42.0053 62.2528 42.112 61.7088 42.112C61.0155 42.112 60.4021 41.968 59.8688 41.68C59.3355 41.3813 58.9141 40.9493 58.6048 40.384C58.3061 39.808 58.1568 39.1253 58.1568 38.336V33.136H60.3968V38.016C60.3968 38.72 60.5728 39.264 60.9248 39.648C61.2768 40.0213 61.7568 40.208 62.3648 40.208C62.9835 40.208 63.4688 40.0213 63.8208 39.648C64.1728 39.264 64.3488 38.72 64.3488 38.016V33.136H66.6048ZM73.7269 33.008C74.7829 33.008 75.6363 33.344 76.2869 34.016C76.9376 34.6773 77.2629 35.6053 77.2629 36.8V42H75.0229V37.104C75.0229 36.4 74.8469 35.8613 74.4949 35.488C74.1429 35.104 73.6629 34.912 73.0549 34.912C72.4363 34.912 71.9456 35.104 71.5829 35.488C71.2309 35.8613 71.0549 36.4 71.0549 37.104V42H68.8149V33.136H71.0549V34.24C71.3536 33.856 71.7323 33.5573 72.1909 33.344C72.6603 33.12 73.1723 33.008 73.7269 33.008ZM80.5291 32.08C80.1344 32.08 79.8037 31.9573 79.5371 31.712C79.2811 31.456 79.1531 31.1413 79.1531 30.768C79.1531 30.3947 79.2811 30.0853 79.5371 29.84C79.8037 29.584 80.1344 29.456 80.5291 29.456C80.9237 29.456 81.2491 29.584 81.5051 29.84C81.7717 30.0853 81.9051 30.3947 81.9051 30.768C81.9051 31.1413 81.7717 31.456 81.5051 31.712C81.2491 31.9573 80.9237 32.08 80.5291 32.08ZM81.6331 33.136V42H79.3931V33.136H81.6331ZM86.4542 34.976V39.264C86.4542 39.5627 86.5235 39.7813 86.6622 39.92C86.8115 40.048 87.0569 40.112 87.3982 40.112H88.4382V42H87.0302C85.1422 42 84.1982 41.0827 84.1982 39.248V34.976H83.1422V33.136H84.1982V30.944H86.4542V33.136H88.4382V34.976H86.4542ZM91.1853 32.08C90.7906 32.08 90.46 31.9573 90.1933 31.712C89.9373 31.456 89.8093 31.1413 89.8093 30.768C89.8093 30.3947 89.9373 30.0853 90.1933 29.84C90.46 29.584 90.7906 29.456 91.1853 29.456C91.58 29.456 91.9053 29.584 92.1613 29.84C92.428 30.0853 92.5613 30.3947 92.5613 30.768C92.5613 31.1413 92.428 31.456 92.1613 31.712C91.9053 31.9573 91.58 32.08 91.1853 32.08ZM92.2893 33.136V42H90.0493V33.136H92.2893ZM102.742 37.376C102.742 37.696 102.721 37.984 102.678 38.24H96.1984C96.2518 38.88 96.4758 39.3813 96.8704 39.744C97.2651 40.1067 97.7504 40.288 98.3264 40.288C99.1584 40.288 99.7504 39.9307 100.102 39.216H102.518C102.262 40.0693 101.772 40.7733 101.046 41.328C100.321 41.872 99.4304 42.144 98.3744 42.144C97.5211 42.144 96.7531 41.9573 96.0704 41.584C95.3984 41.2 94.8704 40.6613 94.4864 39.968C94.1131 39.2747 93.9264 38.4747 93.9264 37.568C93.9264 36.6507 94.1131 35.8453 94.4864 35.152C94.8598 34.4587 95.3824 33.9253 96.0544 33.552C96.7264 33.1787 97.4998 32.992 98.3744 32.992C99.2171 32.992 99.9691 33.1733 100.63 33.536C101.302 33.8987 101.82 34.416 102.182 35.088C102.556 35.7493 102.742 36.512 102.742 37.376ZM100.422 36.736C100.412 36.16 100.204 35.7013 99.7984 35.36C99.3931 35.008 98.8971 34.832 98.3104 34.832C97.7558 34.832 97.2864 35.0027 96.9024 35.344C96.5291 35.6747 96.2998 36.1387 96.2144 36.736H100.422ZM107.769 42.144C107.044 42.144 106.393 42.016 105.817 41.76C105.241 41.4933 104.783 41.136 104.441 40.688C104.111 40.24 103.929 39.744 103.897 39.2H106.153C106.196 39.5413 106.361 39.824 106.649 40.048C106.948 40.272 107.316 40.384 107.753 40.384C108.18 40.384 108.511 40.2987 108.745 40.128C108.991 39.9573 109.113 39.7387 109.113 39.472C109.113 39.184 108.964 38.9707 108.665 38.832C108.377 38.6827 107.913 38.5227 107.273 38.352C106.612 38.192 106.068 38.0267 105.641 37.856C105.225 37.6853 104.863 37.424 104.553 37.072C104.255 36.72 104.105 36.2453 104.105 35.648C104.105 35.1573 104.244 34.7093 104.521 34.304C104.809 33.8987 105.215 33.5787 105.737 33.344C106.271 33.1093 106.895 32.992 107.609 32.992C108.665 32.992 109.508 33.2587 110.137 33.792C110.767 34.3147 111.113 35.024 111.177 35.92H109.033C109.001 35.568 108.852 35.2907 108.585 35.088C108.329 34.8747 107.983 34.768 107.545 34.768C107.14 34.768 106.825 34.8427 106.601 34.992C106.388 35.1413 106.281 35.3493 106.281 35.616C106.281 35.9147 106.431 36.144 106.729 36.304C107.028 36.4533 107.492 36.608 108.121 36.768C108.761 36.928 109.289 37.0933 109.705 37.264C110.121 37.4347 110.479 37.7013 110.777 38.064C111.087 38.416 111.247 38.8853 111.257 39.472C111.257 39.984 111.113 40.4427 110.825 40.848C110.548 41.2533 110.143 41.5733 109.609 41.808C109.087 42.032 108.473 42.144 107.769 42.144Z" fill="#333333"/>
</svg>
