<svg width="14" height="18" viewBox="0 0 14 18" fill="none" xmlns="http://www.w3.org/2000/svg">
<path fill-rule="evenodd" clip-rule="evenodd" d="M1.06255 15.25L10.4376 9.00003L1.06255 2.75003C0.939437 2.66795 0.833694 2.56243 0.75136 2.43949C0.669026 2.31654 0.611714 2.17859 0.582696 2.0335C0.553678 1.88841 0.553523 1.73902 0.582238 1.59387C0.610952 1.44872 0.667975 1.31064 0.750051 1.18753C0.832128 1.06441 0.937649 0.958669 1.06059 0.876335C1.18353 0.794002 1.32149 0.73669 1.46658 0.707672C1.61167 0.678653 1.76106 0.678497 1.90621 0.707211C2.05136 0.735926 2.18944 0.79295 2.31255 0.875026L12.9401 7.96003C13.1112 8.07418 13.2516 8.22883 13.3487 8.41025C13.4458 8.59168 13.4966 8.79426 13.4966 9.00003C13.4966 9.20579 13.4458 9.40838 13.3487 9.5898C13.2516 9.77122 13.1112 9.92587 12.9401 10.04L2.31255 17.125C2.18944 17.2071 2.05136 17.2641 1.90621 17.2928C1.76106 17.3216 1.61167 17.3214 1.46658 17.2924C1.32149 17.2634 1.18353 17.2061 1.06059 17.1237C0.937649 17.0414 0.832128 16.9356 0.750051 16.8125C0.667975 16.6894 0.610952 16.5513 0.582238 16.4062C0.553523 16.261 0.553678 16.1116 0.582696 15.9666C0.611714 15.8215 0.669026 15.6835 0.75136 15.5606C0.833694 15.4376 0.939437 15.3321 1.06255 15.25Z" fill="#09B451"/>
</svg>
