<svg width="14" height="18" viewBox="0 0 14 18" fill="none" xmlns="http://www.w3.org/2000/svg">
<path fill-rule="evenodd" clip-rule="evenodd" d="M12.9374 15.25L3.56245 9.00003L12.9374 2.75003C13.0606 2.66795 13.1663 2.56243 13.2486 2.43949C13.331 2.31654 13.3883 2.17859 13.4173 2.0335C13.4463 1.88841 13.4465 1.73902 13.4178 1.59387C13.389 1.44872 13.332 1.31064 13.2499 1.18753C13.1679 1.06441 13.0624 0.958669 12.9394 0.876335C12.8165 0.794002 12.6785 0.73669 12.5334 0.707672C12.3883 0.678653 12.2389 0.678497 12.0938 0.707211C11.9486 0.735926 11.8106 0.79295 11.6874 0.875026L1.05995 7.96003C0.888751 8.07418 0.748382 8.22883 0.651298 8.41025C0.554214 8.59168 0.503418 8.79426 0.503418 9.00003C0.503418 9.20579 0.554214 9.40838 0.651298 9.5898C0.748382 9.77122 0.888751 9.92587 1.05995 10.04L11.6874 17.125C11.8106 17.2071 11.9486 17.2641 12.0938 17.2928C12.2389 17.3216 12.3883 17.3214 12.5334 17.2924C12.6785 17.2634 12.8165 17.2061 12.9394 17.1237C13.0624 17.0414 13.1679 16.9356 13.2499 16.8125C13.332 16.6894 13.389 16.5513 13.4178 16.4062C13.4465 16.261 13.4463 16.1116 13.4173 15.9666C13.3883 15.8215 13.331 15.6835 13.2486 15.5606C13.1663 15.4376 13.0606 15.3321 12.9374 15.25Z" fill="#09B451"/>
</svg>
